<svg xmlns="http://www.w3.org/2000/svg" width="1050" height="1313" viewBox="0 0 1050 1313" text-rendering="geometricPrecision" font-family="sans-serif">
<g transform="translate(0, 0)">
  <g id="Root">
    <clipPath id="clip-0"><rect x="0" y="0" width="1050" height="1313" rx="10.5" ry="10.5"/></clipPath>
    <g id="ReusableComposeNode">
        <rect x="0" y="0" width="1050" height="1313" rx="10.5" ry="10.5" fill="#FFFFFF"/>
      <g clip-path="url(#clip-0)">
        <g id="ReusableComposeNode">
          <g id="ReusableComposeNode">
            <image href="ideal__default.figma-raster/1720.png" x="0" y="0" width="1050" height="148"/>
          </g>
          <g id="ReusableComposeNode">
            <g id="ImageKt">
              <image href="ideal__default.figma-raster/1731.png" x="35" y="180" width="63" height="63"/>
            </g>
            <g id="ImageKt">
              <image href="ideal__default.figma-raster/1734.png" x="167" y="180" width="63" height="63"/>
            </g>
            <g id="ImageKt">
              <image href="ideal__default.figma-raster/1737.png" x="298" y="180" width="63" height="63"/>
            </g>
            <g id="ImageKt">
              <image href="ideal__default.figma-raster/1740.png" x="429" y="180" width="63" height="63"/>
            </g>
            <g id="ImageKt">
              <image href="ideal__default.figma-raster/1743.png" x="560" y="180" width="63" height="63"/>
            </g>
            <g id="ImageKt">
              <image href="ideal__default.figma-raster/1746.png" x="691" y="180" width="63" height="63"/>
            </g>
            <g id="ImageKt">
              <image href="ideal__default.figma-raster/1749.png" x="822" y="180" width="63" height="63"/>
            </g>
            <g id="ImageKt">
              <image href="ideal__default.figma-raster/1752.png" x="953" y="180" width="63" height="63"/>
            </g>
            <g id="ImageKt">
              <image href="ideal__default.figma-raster/1755.png" x="35" y="306" width="63" height="63"/>
            </g>
            <g id="ImageKt">
              <image href="ideal__default.figma-raster/1758.png" x="167" y="306" width="63" height="63"/>
            </g>
            <g id="ImageKt">
              <image href="ideal__default.figma-raster/1761.png" x="298" y="306" width="63" height="63"/>
            </g>
            <g id="ImageKt">
              <image href="ideal__default.figma-raster/1764.png" x="429" y="306" width="63" height="63"/>
            </g>
            <g id="ImageKt">
              <image href="ideal__default.figma-raster/1767.png" x="560" y="306" width="63" height="63"/>
            </g>
            <g id="ImageKt">
              <image href="ideal__default.figma-raster/1770.png" x="691" y="306" width="63" height="63"/>
            </g>
            <g id="ImageKt">
              <image href="ideal__default.figma-raster/1773.png" x="822" y="306" width="63" height="63"/>
            </g>
            <g id="ImageKt">
              <image href="ideal__default.figma-raster/1776.png" x="953" y="306" width="63" height="63"/>
            </g>
            <g id="ImageKt">
              <image href="ideal__default.figma-raster/1779.png" x="35" y="432" width="63" height="63"/>
            </g>
            <g id="ImageKt">
              <image href="ideal__default.figma-raster/1782.png" x="167" y="432" width="63" height="63"/>
            </g>
            <g id="ImageKt">
              <image href="ideal__default.figma-raster/1785.png" x="298" y="432" width="63" height="63"/>
            </g>
            <g id="ImageKt">
              <image href="ideal__default.figma-raster/1788.png" x="429" y="432" width="63" height="63"/>
            </g>
            <g id="ImageKt">
              <image href="ideal__default.figma-raster/1791.png" x="560" y="432" width="63" height="63"/>
            </g>
            <g id="ImageKt">
              <image href="ideal__default.figma-raster/1794.png" x="691" y="432" width="63" height="63"/>
            </g>
            <g id="ImageKt">
              <image href="ideal__default.figma-raster/1797.png" x="822" y="432" width="63" height="63"/>
            </g>
            <g id="ImageKt">
              <image href="ideal__default.figma-raster/1800.png" x="953" y="432" width="63" height="63"/>
            </g>
            <g id="ImageKt">
              <image href="ideal__default.figma-raster/1803.png" x="35" y="558" width="63" height="63"/>
            </g>
            <g id="ImageKt">
              <image href="ideal__default.figma-raster/1806.png" x="167" y="558" width="63" height="63"/>
            </g>
            <g id="ImageKt">
              <image href="ideal__default.figma-raster/1809.png" x="298" y="558" width="63" height="63"/>
            </g>
            <g id="ImageKt">
              <image href="ideal__default.figma-raster/1812.png" x="429" y="558" width="63" height="63"/>
            </g>
            <g id="ImageKt">
              <image href="ideal__default.figma-raster/1815.png" x="560" y="558" width="63" height="63"/>
            </g>
            <g id="ImageKt">
              <image href="ideal__default.figma-raster/1818.png" x="691" y="558" width="63" height="63"/>
            </g>
            <g id="ImageKt">
              <image href="ideal__default.figma-raster/1821.png" x="822" y="558" width="63" height="63"/>
            </g>
            <g id="ImageKt">
              <image href="ideal__default.figma-raster/1824.png" x="953" y="558" width="63" height="63"/>
            </g>
            <g id="ImageKt">
              <image href="ideal__default.figma-raster/1827.png" x="35" y="684" width="63" height="63"/>
            </g>
            <g id="ImageKt">
              <image href="ideal__default.figma-raster/1830.png" x="167" y="684" width="63" height="63"/>
            </g>
            <g id="ImageKt">
              <image href="ideal__default.figma-raster/1833.png" x="298" y="684" width="63" height="63"/>
            </g>
            <g id="ImageKt">
              <image href="ideal__default.figma-raster/1836.png" x="429" y="684" width="63" height="63"/>
            </g>
            <g id="ImageKt">
              <image href="ideal__default.figma-raster/1839.png" x="560" y="684" width="63" height="63"/>
            </g>
            <g id="ImageKt">
              <image href="ideal__default.figma-raster/1842.png" x="691" y="684" width="63" height="63"/>
            </g>
            <g id="ImageKt">
              <image href="ideal__default.figma-raster/1845.png" x="822" y="684" width="63" height="63"/>
            </g>
            <g id="ImageKt">
              <image href="ideal__default.figma-raster/1848.png" x="953" y="684" width="63" height="63"/>
            </g>
            <g id="ImageKt">
              <image href="ideal__default.figma-raster/1851.png" x="35" y="810" width="63" height="63"/>
            </g>
            <g id="ImageKt">
              <image href="ideal__default.figma-raster/1854.png" x="167" y="810" width="63" height="63"/>
            </g>
            <g id="ImageKt">
              <image href="ideal__default.figma-raster/1857.png" x="298" y="810" width="63" height="63"/>
            </g>
            <g id="ImageKt">
              <image href="ideal__default.figma-raster/1860.png" x="429" y="810" width="63" height="63"/>
            </g>
            <g id="ImageKt">
              <image href="ideal__default.figma-raster/1863.png" x="560" y="810" width="63" height="63"/>
            </g>
            <g id="ImageKt">
              <image href="ideal__default.figma-raster/1866.png" x="691" y="810" width="63" height="63"/>
            </g>
            <g id="ImageKt">
              <image href="ideal__default.figma-raster/1869.png" x="822" y="810" width="63" height="63"/>
            </g>
            <g id="ImageKt">
              <image href="ideal__default.figma-raster/1872.png" x="953" y="810" width="63" height="63"/>
            </g>
            <g id="ImageKt">
              <image href="ideal__default.figma-raster/1875.png" x="35" y="936" width="63" height="63"/>
            </g>
            <g id="ImageKt">
              <image href="ideal__default.figma-raster/1878.png" x="167" y="936" width="63" height="63"/>
            </g>
            <g id="ImageKt">
              <image href="ideal__default.figma-raster/1881.png" x="298" y="936" width="63" height="63"/>
            </g>
            <g id="ImageKt">
              <image href="ideal__default.figma-raster/1884.png" x="429" y="936" width="63" height="63"/>
            </g>
            <g id="ImageKt">
              <image href="ideal__default.figma-raster/1887.png" x="560" y="936" width="63" height="63"/>
            </g>
            <g id="ImageKt">
              <image href="ideal__default.figma-raster/1890.png" x="691" y="936" width="63" height="63"/>
            </g>
            <g id="ImageKt">
              <image href="ideal__default.figma-raster/1893.png" x="822" y="936" width="63" height="63"/>
            </g>
            <g id="ImageKt">
              <image href="ideal__default.figma-raster/1896.png" x="953" y="936" width="63" height="63"/>
            </g>
            <g id="ImageKt">
              <image href="ideal__default.figma-raster/1899.png" x="35" y="1062" width="63" height="63"/>
            </g>
            <g id="ImageKt">
              <image href="ideal__default.figma-raster/1902.png" x="167" y="1062" width="63" height="63"/>
            </g>
            <g id="ImageKt">
              <image href="ideal__default.figma-raster/1905.png" x="298" y="1062" width="63" height="63"/>
            </g>
            <g id="ImageKt">
              <image href="ideal__default.figma-raster/1908.png" x="429" y="1062" width="63" height="63"/>
            </g>
            <g id="ImageKt">
              <image href="ideal__default.figma-raster/1911.png" x="560" y="1062" width="63" height="63"/>
            </g>
            <g id="ImageKt">
              <image href="ideal__default.figma-raster/1914.png" x="691" y="1062" width="63" height="63"/>
            </g>
            <g id="ImageKt">
              <image href="ideal__default.figma-raster/1917.png" x="822" y="1062" width="63" height="63"/>
            </g>
            <g id="ImageKt">
              <image href="ideal__default.figma-raster/1920.png" x="953" y="1062" width="63" height="63"/>
            </g>
            <g id="ImageKt">
              <image href="ideal__default.figma-raster/1923.png" x="35" y="1188" width="63" height="63"/>
            </g>
            <g id="ImageKt">
              <image href="ideal__default.figma-raster/1926.png" x="167" y="1188" width="63" height="63"/>
            </g>
            <g id="ImageKt">
              <image href="ideal__default.figma-raster/1929.png" x="298" y="1188" width="63" height="63"/>
            </g>
            <g id="ImageKt">
              <image href="ideal__default.figma-raster/1932.png" x="429" y="1188" width="63" height="63"/>
            </g>
            <g id="ImageKt">
              <image href="ideal__default.figma-raster/1935.png" x="560" y="1188" width="63" height="63"/>
            </g>
            <g id="ImageKt">
              <image href="ideal__default.figma-raster/1938.png" x="691" y="1188" width="63" height="63"/>
            </g>
            <g id="ImageKt">
              <image href="ideal__default.figma-raster/1941.png" x="822" y="1188" width="63" height="63"/>
            </g>
            <g id="ImageKt">
              <image href="ideal__default.figma-raster/1944.png" x="953" y="1188" width="63" height="63"/>
            </g>
            <g id="ImageKt">
            </g>
            <g id="ImageKt">
            </g>
            <g id="ImageKt">
            </g>
            <g id="ImageKt">
            </g>
            <g id="ImageKt">
            </g>
            <g id="ImageKt">
            </g>
            <g id="ImageKt">
            </g>
            <g id="ImageKt">
            </g>
          </g>
        </g>
      </g>
    </g>
  </g>
</g>
</svg>
