<svg xmlns="http://www.w3.org/2000/svg" viewBox="0 0 454 480" width="454" height="480" role="img" aria-label="Home/Sensors layout wireframe">
  <title>Home/Sensors — layout wireframe (slots + tokens)</title>
  <rect width="454" height="480" fill="#ffffff"/>
  <g>
    <rect x="0" y="0" width="454" height="454" fill="none" fill-opacity="0" stroke="#5B6470" stroke-width="1" stroke-opacity="0.5"/>
  </g>
  <g>
    <rect x="0" y="0" width="454" height="454" fill="none" fill-opacity="0" stroke="#2E7D6B" stroke-width="1" stroke-opacity="0.5"/>
  </g>
  <g>
    <rect x="0" y="0" width="454" height="454" fill="none" fill-opacity="0" stroke="#8E6BA8" stroke-width="1" stroke-opacity="0.5"/>
  </g>
  <g>
    <rect x="0" y="0" width="454" height="454" fill="none" fill-opacity="0" stroke="#B0813B" stroke-width="1" stroke-opacity="0.5"/>
  </g>
  <g>
    <rect x="0" y="-22" width="454" height="498" fill="none" fill-opacity="0" stroke="#3B72A8" stroke-width="1" stroke-opacity="0.5"/>
  </g>
  <g>
    <rect x="138" y="71" width="178" height="96" fill="none" fill-opacity="0" stroke="#A85B6B" stroke-width="1" stroke-opacity="0.5"/>
  </g>
  <g>
    <rect x="166" y="104" width="122" height="38" fill="none" fill-opacity="0" stroke="#4F8A4A" stroke-width="1" stroke-opacity="0.5"/>
  </g>
  <g>
    <rect x="166" y="104" width="122" height="38" fill="none" fill-opacity="0" stroke="#7A7A33" stroke-width="1" stroke-opacity="0.5"/>
  </g>
  <g>
    <rect x="16" y="175" width="422" height="104" fill="none" fill-opacity="0" stroke="#A85B6B" stroke-width="1" stroke-opacity="0.5"/>
  </g>
  <g>
    <rect x="16" y="175" width="422" height="104" fill="none" fill-opacity="0" stroke="#4F8A4A" stroke-width="1" stroke-opacity="0.5"/>
  </g>
  <g>
    <path d="M84,187 H370 A40,40 0 0 1 410,227 V227 A40,40 0 0 1 370,267 H84 A40,40 0 0 1 44,227 V227 A40,40 0 0 1 84,187 Z" fill="#252626" fill-opacity="1" stroke="#7A7A33" stroke-width="1.5" stroke-opacity="1"/>
    <text x="47" y="199" font-family="system-ui, sans-serif" font-size="9" fill="#7A7A33">#FF252626  pad ·</text>
  </g>
  <g>
    <rect x="44" y="187" width="187" height="80" fill="none" fill-opacity="0" stroke="#5B6470" stroke-width="1" stroke-opacity="0.5"/>
  </g>
  <g>
    <rect x="44" y="210" width="187" height="35" fill="none" fill-opacity="0" stroke="#2E7D6B" stroke-width="1" stroke-opacity="0.5"/>
  </g>
  <g>
    <rect x="44" y="210" width="187" height="35" fill="none" fill-opacity="0" stroke="#8E6BA8" stroke-width="1" stroke-opacity="0.5"/>
  </g>
  <g>
    <rect x="44" y="210" width="187" height="35" fill="none" fill-opacity="0" stroke="#B0813B" stroke-width="1" stroke-opacity="0.5"/>
  </g>
  <g>
    <rect x="16" y="287" width="422" height="104" fill="none" fill-opacity="0" stroke="#A85B6B" stroke-width="1" stroke-opacity="0.5"/>
  </g>
  <g>
    <rect x="16" y="287" width="422" height="104" fill="none" fill-opacity="0" stroke="#4F8A4A" stroke-width="1" stroke-opacity="0.5"/>
  </g>
  <g>
    <path d="M84,299 H370 A40,40 0 0 1 410,339 V339 A40,40 0 0 1 370,379 H84 A40,40 0 0 1 44,339 V339 A40,40 0 0 1 84,299 Z" fill="#252626" fill-opacity="1" stroke="#7A7A33" stroke-width="1.5" stroke-opacity="1"/>
    <text x="47" y="311" font-family="system-ui, sans-serif" font-size="9" fill="#7A7A33">#FF252626  pad ·</text>
  </g>
  <g>
    <rect x="44" y="299" width="276" height="80" fill="none" fill-opacity="0" stroke="#5B6470" stroke-width="1" stroke-opacity="0.5"/>
  </g>
  <g>
    <rect x="44" y="322" width="276" height="35" fill="none" fill-opacity="0" stroke="#2E7D6B" stroke-width="1" stroke-opacity="0.5"/>
  </g>
  <g>
    <rect x="44" y="322" width="276" height="35" fill="none" fill-opacity="0" stroke="#8E6BA8" stroke-width="1" stroke-opacity="0.5"/>
  </g>
  <g>
    <rect x="44" y="322" width="276" height="35" fill="none" fill-opacity="0" stroke="#B0813B" stroke-width="1" stroke-opacity="0.5"/>
  </g>
  <g>
    <rect x="62" y="399" width="330" height="81" fill="none" fill-opacity="0" stroke="#A85B6B" stroke-width="1" stroke-opacity="0.5"/>
  </g>
  <g>
    <rect x="62" y="399" width="330" height="81" fill="none" fill-opacity="0" stroke="#4F8A4A" stroke-width="1" stroke-opacity="0.5"/>
  </g>
  <g>
    <path d="M115,408 H339 A31,31 0 0 1 370,439 V439 A31,31 0 0 1 339,470 H115 A31,31 0 0 1 84,439 V439 A31,31 0 0 1 115,408 Z" fill="#252626" fill-opacity="1" stroke="#7A7A33" stroke-width="1.5" stroke-opacity="1"/>
    <text x="87" y="420" font-family="system-ui, sans-serif" font-size="9" fill="#7A7A33">#FF252626  pad ·</text>
  </g>
  <g>
    <rect x="84" y="408" width="137" height="62" fill="none" fill-opacity="0" stroke="#5B6470" stroke-width="1" stroke-opacity="0.5"/>
  </g>
  <g>
    <rect x="84" y="426" width="137" height="27" fill="none" fill-opacity="0" stroke="#2E7D6B" stroke-width="1" stroke-opacity="0.5"/>
  </g>
  <g>
    <rect x="84" y="426" width="137" height="27" fill="none" fill-opacity="0" stroke="#8E6BA8" stroke-width="1" stroke-opacity="0.5"/>
  </g>
  <g>
    <rect x="84" y="426" width="137" height="27" fill="none" fill-opacity="0" stroke="#B0813B" stroke-width="1" stroke-opacity="0.5"/>
  </g>
  <g>
    <rect x="0" y="0" width="454" height="454" fill="none" fill-opacity="0" stroke="#B0813B" stroke-width="1" stroke-opacity="0.5"/>
  </g>
  <g>
    <rect x="200" y="6" width="54" height="37" fill="none" fill-opacity="0" stroke="#3B72A8" stroke-width="1" stroke-opacity="0.5"/>
  </g>
</svg>
