<svg xmlns="http://www.w3.org/2000/svg" viewBox="0 0 1050 294" width="1050" height="294" role="img" aria-label="Settings/External URL layout wireframe">
  <title>Settings/External URL — layout wireframe (slots + tokens)</title>
  <rect width="1050" height="294" fill="#ffffff"/>
  <g>
    <rect x="0" y="0" width="1050" height="294" fill="none" fill-opacity="0" stroke="#5B6470" stroke-width="1" stroke-opacity="0.5"/>
  </g>
  <g>
    <rect x="0" y="0" width="1050" height="294" fill="none" fill-opacity="0" stroke="#2E7D6B" stroke-width="1" stroke-opacity="0.5"/>
  </g>
  <g>
    <rect x="0" y="42" width="1050" height="210" fill="none" fill-opacity="0" stroke="#8E6BA8" stroke-width="1" stroke-opacity="0.5"/>
  </g>
  <g>
    <rect x="42" y="63" width="966" height="105" fill="none" fill-opacity="0" stroke="#B0813B" stroke-width="1" stroke-opacity="0.5"/>
  </g>
  <g>
    <rect x="42" y="94" width="825" height="43" fill="none" fill-opacity="0" stroke="#3B72A8" stroke-width="1" stroke-opacity="0.5"/>
  </g>
  <g>
    <rect x="914" y="89" width="89" height="53" fill="none" fill-opacity="0" stroke="#3B72A8" stroke-width="1" stroke-opacity="0.5"/>
  </g>
  <g>
    <rect x="914" y="89" width="89" height="53" fill="none" fill-opacity="0" stroke="#A85B6B" stroke-width="1" stroke-opacity="0.5"/>
  </g>
  <g>
    <path d="M977.5,89 H977.5 A26.5,26.5 0 0 1 1004,115.5 V115.5 A26.5,26.5 0 0 1 977.5,142 H977.5 A26.5,26.5 0 0 1 951,115.5 V115.5 A26.5,26.5 0 0 1 977.5,89 Z" fill="#018786" fill-opacity="1" stroke="#A85B6B" stroke-width="1.5" stroke-opacity="1"/>
    <text x="954" y="101" font-family="system-ui, sans-serif" font-size="9" fill="#A85B6B">#FF018786</text>
  </g>
</svg>
