<svg xmlns="http://www.w3.org/2000/svg" viewBox="0 0 1050 1837" width="1050" height="1837" role="img" aria-label="Settings/Widgets layout wireframe">
  <title>Settings/Widgets — layout wireframe (slots + tokens)</title>
  <rect width="1050" height="1837" fill="#ffffff"/>
  <g>
    <rect x="0" y="0" width="1050" height="1837" fill="none" fill-opacity="0" stroke="#5B6470" stroke-width="1" stroke-opacity="0.5"/>
  </g>
  <g>
    <rect x="0" y="0" width="1050" height="1837" fill="none" fill-opacity="0" stroke="#2E7D6B" stroke-width="1" stroke-opacity="0.5"/>
  </g>
  <g>
    <rect x="0" y="0" width="1050" height="1837" fill="#FFFFFF" fill-opacity="1" stroke="#8E6BA8" stroke-width="1.5" stroke-opacity="1"/>
    <text x="3" y="12" font-family="system-ui, sans-serif" font-size="9" fill="#8E6BA8">#FFFFFFFF</text>
  </g>
  <g>
    <rect x="0" y="0" width="1050" height="1837" fill="none" fill-opacity="0" stroke="#B0813B" stroke-width="1" stroke-opacity="0.5"/>
  </g>
  <g>
    <rect x="0" y="0" width="1050" height="1029" fill="none" fill-opacity="0" stroke="#3B72A8" stroke-width="1" stroke-opacity="0.5"/>
  </g>
  <g>
    <rect x="42" y="42" width="300" height="63" fill="none" fill-opacity="0" stroke="#A85B6B" stroke-width="1" stroke-opacity="0.5"/>
  </g>
  <g>
    <rect x="42" y="105" width="348" height="126" fill="none" fill-opacity="0" stroke="#A85B6B" stroke-width="1" stroke-opacity="0.5"/>
  </g>
  <g>
    <path d="M52.5,121 H379.5 A10.5,10.5 0 0 1 390,131.5 V205.5 A10.5,10.5 0 0 1 379.5,216 H52.5 A10.5,10.5 0 0 1 42,205.5 V131.5 A10.5,10.5 0 0 1 52.5,121 Z" fill="#03A9F4" fill-opacity="1" stroke="#4F8A4A" stroke-width="1.5" stroke-opacity="1"/>
    <text x="45" y="133" font-family="system-ui, sans-serif" font-size="9" fill="#4F8A4A">#FF03A9F4</text>
  </g>
  <g>
    <rect x="84" y="142" width="264" height="53" fill="none" fill-opacity="0" stroke="#7A7A33" stroke-width="1" stroke-opacity="0.5"/>
  </g>
  <g>
    <rect x="84" y="147" width="264" height="43" fill="none" fill-opacity="0" stroke="#5B6470" stroke-width="1" stroke-opacity="0.5"/>
  </g>
  <g>
    <rect x="42" y="231" width="322" height="63" fill="none" fill-opacity="0" stroke="#A85B6B" stroke-width="1" stroke-opacity="0.5"/>
  </g>
  <g>
    <rect x="42" y="294" width="367" height="126" fill="none" fill-opacity="0" stroke="#A85B6B" stroke-width="1" stroke-opacity="0.5"/>
  </g>
  <g>
    <path d="M52.5,310 H398.5 A10.5,10.5 0 0 1 409,320.5 V394.5 A10.5,10.5 0 0 1 398.5,405 H52.5 A10.5,10.5 0 0 1 42,394.5 V320.5 A10.5,10.5 0 0 1 52.5,310 Z" fill="#03A9F4" fill-opacity="1" stroke="#4F8A4A" stroke-width="1.5" stroke-opacity="1"/>
    <text x="45" y="322" font-family="system-ui, sans-serif" font-size="9" fill="#4F8A4A">#FF03A9F4</text>
  </g>
  <g>
    <rect x="84" y="331" width="283" height="53" fill="none" fill-opacity="0" stroke="#7A7A33" stroke-width="1" stroke-opacity="0.5"/>
  </g>
  <g>
    <rect x="84" y="336" width="283" height="43" fill="none" fill-opacity="0" stroke="#5B6470" stroke-width="1" stroke-opacity="0.5"/>
  </g>
  <g>
    <rect x="42" y="420" width="394" height="63" fill="none" fill-opacity="0" stroke="#A85B6B" stroke-width="1" stroke-opacity="0.5"/>
  </g>
  <g>
    <rect x="42" y="483" width="322" height="126" fill="none" fill-opacity="0" stroke="#A85B6B" stroke-width="1" stroke-opacity="0.5"/>
  </g>
  <g>
    <path d="M52.5,499 H353.5 A10.5,10.5 0 0 1 364,509.5 V583.5 A10.5,10.5 0 0 1 353.5,594 H52.5 A10.5,10.5 0 0 1 42,583.5 V509.5 A10.5,10.5 0 0 1 52.5,499 Z" fill="#03A9F4" fill-opacity="1" stroke="#4F8A4A" stroke-width="1.5" stroke-opacity="1"/>
    <text x="45" y="511" font-family="system-ui, sans-serif" font-size="9" fill="#4F8A4A">#FF03A9F4</text>
  </g>
  <g>
    <rect x="84" y="520" width="238" height="53" fill="none" fill-opacity="0" stroke="#7A7A33" stroke-width="1" stroke-opacity="0.5"/>
  </g>
  <g>
    <rect x="84" y="525" width="238" height="43" fill="none" fill-opacity="0" stroke="#5B6470" stroke-width="1" stroke-opacity="0.5"/>
  </g>
  <g>
    <rect x="42" y="609" width="423" height="63" fill="none" fill-opacity="0" stroke="#A85B6B" stroke-width="1" stroke-opacity="0.5"/>
  </g>
  <g>
    <rect x="42" y="672" width="337" height="126" fill="none" fill-opacity="0" stroke="#A85B6B" stroke-width="1" stroke-opacity="0.5"/>
  </g>
  <g>
    <path d="M52.5,688 H368.5 A10.5,10.5 0 0 1 379,698.5 V772.5 A10.5,10.5 0 0 1 368.5,783 H52.5 A10.5,10.5 0 0 1 42,772.5 V698.5 A10.5,10.5 0 0 1 52.5,688 Z" fill="#03A9F4" fill-opacity="1" stroke="#4F8A4A" stroke-width="1.5" stroke-opacity="1"/>
    <text x="45" y="700" font-family="system-ui, sans-serif" font-size="9" fill="#4F8A4A">#FF03A9F4</text>
  </g>
  <g>
    <rect x="84" y="709" width="253" height="53" fill="none" fill-opacity="0" stroke="#7A7A33" stroke-width="1" stroke-opacity="0.5"/>
  </g>
  <g>
    <rect x="84" y="714" width="253" height="43" fill="none" fill-opacity="0" stroke="#5B6470" stroke-width="1" stroke-opacity="0.5"/>
  </g>
  <g>
    <rect x="42" y="798" width="354" height="63" fill="none" fill-opacity="0" stroke="#A85B6B" stroke-width="1" stroke-opacity="0.5"/>
  </g>
  <g>
    <rect x="42" y="861" width="397" height="126" fill="none" fill-opacity="0" stroke="#A85B6B" stroke-width="1" stroke-opacity="0.5"/>
  </g>
  <g>
    <path d="M52.5,877 H428.5 A10.5,10.5 0 0 1 439,887.5 V961.5 A10.5,10.5 0 0 1 428.5,972 H52.5 A10.5,10.5 0 0 1 42,961.5 V887.5 A10.5,10.5 0 0 1 52.5,877 Z" fill="#03A9F4" fill-opacity="1" stroke="#4F8A4A" stroke-width="1.5" stroke-opacity="1"/>
    <text x="45" y="889" font-family="system-ui, sans-serif" font-size="9" fill="#4F8A4A">#FF03A9F4</text>
  </g>
  <g>
    <rect x="84" y="898" width="313" height="53" fill="none" fill-opacity="0" stroke="#7A7A33" stroke-width="1" stroke-opacity="0.5"/>
  </g>
  <g>
    <rect x="84" y="903" width="313" height="43" fill="none" fill-opacity="0" stroke="#5B6470" stroke-width="1" stroke-opacity="0.5"/>
  </g>
  <g>
    <path d="M681,1669 H945 A63,63 0 0 1 1008,1732 V1732 A63,63 0 0 1 945,1795 H681 A63,63 0 0 1 618,1732 V1732 A63,63 0 0 1 681,1669 Z" fill="#03A9F4" fill-opacity="1" stroke="#3B72A8" stroke-width="1.5" stroke-opacity="1"/>
    <text x="621" y="1681" font-family="system-ui, sans-serif" font-size="9" fill="#3B72A8">#FF03A9F4</text>
  </g>
  <g>
    <rect x="618" y="1669" width="390" height="126" fill="none" fill-opacity="0" stroke="#A85B6B" stroke-width="1" stroke-opacity="0.5"/>
  </g>
  <g>
    <rect x="650" y="1701" width="305" height="63" fill="none" fill-opacity="0" stroke="#4F8A4A" stroke-width="1" stroke-opacity="0.5"/>
  </g>
  <g>
    <rect x="650" y="1701" width="63" height="63" fill="none" fill-opacity="0" stroke="#7A7A33" stroke-width="1" stroke-opacity="0.5"/>
  </g>
  <g>
    <rect x="745" y="1711" width="210" height="43" fill="none" fill-opacity="0" stroke="#7A7A33" stroke-width="1" stroke-opacity="0.5"/>
  </g>
</svg>
