<svg xmlns="http://www.w3.org/2000/svg" viewBox="0 0 454 476" width="454" height="476" role="img" aria-label="Tiles/Camera selection layout wireframe">
  <title>Tiles/Camera selection — layout wireframe (slots + tokens)</title>
  <rect width="454" height="476" fill="#ffffff"/>
  <g>
    <rect x="0" y="0" width="454" height="454" fill="none" fill-opacity="0" stroke="#5B6470" stroke-width="1" stroke-opacity="0.5"/>
  </g>
  <g>
    <rect x="0" y="0" width="454" height="454" fill="none" fill-opacity="0" stroke="#2E7D6B" stroke-width="1" stroke-opacity="0.5"/>
  </g>
  <g>
    <rect x="0" y="0" width="454" height="454" fill="none" fill-opacity="0" stroke="#8E6BA8" stroke-width="1" stroke-opacity="0.5"/>
  </g>
  <g>
    <rect x="0" y="0" width="454" height="454" fill="none" fill-opacity="0" stroke="#B0813B" stroke-width="1" stroke-opacity="0.5"/>
  </g>
  <g>
    <rect x="0" y="-22" width="454" height="498" fill="none" fill-opacity="0" stroke="#3B72A8" stroke-width="1" stroke-opacity="0.5"/>
  </g>
  <g>
    <rect x="105" y="71" width="244" height="96" fill="none" fill-opacity="0" stroke="#A85B6B" stroke-width="1" stroke-opacity="0.5"/>
  </g>
  <g>
    <rect x="133" y="104" width="188" height="38" fill="none" fill-opacity="0" stroke="#4F8A4A" stroke-width="1" stroke-opacity="0.5"/>
  </g>
  <g>
    <rect x="133" y="104" width="188" height="38" fill="none" fill-opacity="0" stroke="#7A7A33" stroke-width="1" stroke-opacity="0.5"/>
  </g>
  <g>
    <rect x="16" y="175" width="422" height="104" fill="none" fill-opacity="0" stroke="#A85B6B" stroke-width="1" stroke-opacity="0.5"/>
  </g>
  <g>
    <path d="M84,187 H370 A40,40 0 0 1 410,227 V227 A40,40 0 0 1 370,267 H84 A40,40 0 0 1 44,227 V227 A40,40 0 0 1 84,187 Z" fill="#252626" fill-opacity="1" stroke="#4F8A4A" stroke-width="1.5" stroke-opacity="1"/>
    <text x="47" y="199" font-family="system-ui, sans-serif" font-size="9" fill="#4F8A4A">#FF252626  pad ·</text>
  </g>
  <g>
    <rect x="44" y="187" width="230" height="80" fill="none" fill-opacity="0" stroke="#7A7A33" stroke-width="1" stroke-opacity="0.5"/>
  </g>
  <g>
    <rect x="44" y="195" width="230" height="65" fill="none" fill-opacity="0" stroke="#5B6470" stroke-width="1" stroke-opacity="0.5"/>
  </g>
  <g>
    <rect x="44" y="195" width="202" height="35" fill="none" fill-opacity="0" stroke="#2E7D6B" stroke-width="1" stroke-opacity="0.5"/>
  </g>
  <g>
    <rect x="44" y="195" width="202" height="35" fill="none" fill-opacity="0" stroke="#8E6BA8" stroke-width="1" stroke-opacity="0.5"/>
  </g>
  <g>
    <rect x="44" y="230" width="230" height="30" fill="none" fill-opacity="0" stroke="#2E7D6B" stroke-width="1" stroke-opacity="0.5"/>
  </g>
  <g>
    <rect x="44" y="230" width="230" height="30" fill="none" fill-opacity="0" stroke="#8E6BA8" stroke-width="1" stroke-opacity="0.5"/>
  </g>
  <g>
    <rect x="0" y="0" width="454" height="454" fill="none" fill-opacity="0" stroke="#B0813B" stroke-width="1" stroke-opacity="0.5"/>
  </g>
  <g>
    <rect x="195" y="6" width="64" height="37" fill="none" fill-opacity="0" stroke="#3B72A8" stroke-width="1" stroke-opacity="0.5"/>
  </g>
</svg>
